<mxfile host="app.diagrams.net" modified="2022-08-08T09:24:30.042Z" agent="5.0 (Macintosh; Intel Mac OS X 10_15_7) AppleWebKit/537.36 (KHTML, like Gecko) Chrome/103.0.0.0 Safari/537.36" etag="iPVcGPl5dOQkaDlX-d7p" version="20.2.3" type="github">
  <diagram id="-fdBwRrhvPNoMFxH_5Iq" name="第 1 页">
    <mxGraphModel dx="1298" dy="866" grid="1" gridSize="10" guides="1" tooltips="1" connect="1" arrows="1" fold="1" page="1" pageScale="1" pageWidth="827" pageHeight="1169" math="0" shadow="0">
      <root>
        <mxCell id="0" />
        <mxCell id="1" parent="0" />
        <mxCell id="85ab-mjDChyX_CGXG3ws-1" value="数据" style="rounded=0;whiteSpace=wrap;html=1;" vertex="1" parent="1">
          <mxGeometry x="30" y="280" width="250" height="60" as="geometry" />
        </mxCell>
        <mxCell id="85ab-mjDChyX_CGXG3ws-2" value="模型" style="rounded=0;whiteSpace=wrap;html=1;" vertex="1" parent="1">
          <mxGeometry x="380" y="280" width="190" height="60" as="geometry" />
        </mxCell>
        <mxCell id="85ab-mjDChyX_CGXG3ws-3" value="场景" style="rounded=0;whiteSpace=wrap;html=1;" vertex="1" parent="1">
          <mxGeometry x="670" y="340" width="90" height="40" as="geometry" />
        </mxCell>
        <mxCell id="85ab-mjDChyX_CGXG3ws-4" value="基础数据" style="rounded=0;whiteSpace=wrap;html=1;" vertex="1" parent="1">
          <mxGeometry x="30" y="340" width="80" height="60" as="geometry" />
        </mxCell>
        <mxCell id="85ab-mjDChyX_CGXG3ws-9" value="" style="group" vertex="1" connectable="0" parent="1">
          <mxGeometry x="30" y="400" width="80" height="120" as="geometry" />
        </mxCell>
        <mxCell id="85ab-mjDChyX_CGXG3ws-5" value="订单信息" style="rounded=0;whiteSpace=wrap;html=1;" vertex="1" parent="85ab-mjDChyX_CGXG3ws-9">
          <mxGeometry width="80" height="30" as="geometry" />
        </mxCell>
        <mxCell id="85ab-mjDChyX_CGXG3ws-6" value="乘客信息" style="rounded=0;whiteSpace=wrap;html=1;" vertex="1" parent="85ab-mjDChyX_CGXG3ws-9">
          <mxGeometry y="30" width="80" height="30" as="geometry" />
        </mxCell>
        <mxCell id="85ab-mjDChyX_CGXG3ws-7" value="司机信息" style="rounded=0;whiteSpace=wrap;html=1;" vertex="1" parent="85ab-mjDChyX_CGXG3ws-9">
          <mxGeometry y="90" width="80" height="30" as="geometry" />
        </mxCell>
        <mxCell id="85ab-mjDChyX_CGXG3ws-8" value="设备信息" style="rounded=0;whiteSpace=wrap;html=1;" vertex="1" parent="85ab-mjDChyX_CGXG3ws-9">
          <mxGeometry y="60" width="80" height="30" as="geometry" />
        </mxCell>
        <mxCell id="85ab-mjDChyX_CGXG3ws-12" value="工具平台" style="rounded=0;whiteSpace=wrap;html=1;" vertex="1" parent="1">
          <mxGeometry x="110" y="340" width="120" height="60" as="geometry" />
        </mxCell>
        <mxCell id="85ab-mjDChyX_CGXG3ws-13" value="魔数平台&lt;br&gt;xt数据生产&lt;br&gt;薪火平台" style="rounded=0;whiteSpace=wrap;html=1;" vertex="1" parent="1">
          <mxGeometry x="110" y="400" width="60" height="120" as="geometry" />
        </mxCell>
        <mxCell id="85ab-mjDChyX_CGXG3ws-14" value="查询数据&lt;br&gt;分析数据&lt;br&gt;处理数据" style="rounded=0;whiteSpace=wrap;html=1;" vertex="1" parent="1">
          <mxGeometry x="170" y="400" width="60" height="120" as="geometry" />
        </mxCell>
        <mxCell id="85ab-mjDChyX_CGXG3ws-15" value="特征" style="rounded=0;whiteSpace=wrap;html=1;" vertex="1" parent="1">
          <mxGeometry x="230" y="340" width="50" height="60" as="geometry" />
        </mxCell>
        <mxCell id="85ab-mjDChyX_CGXG3ws-21" value="订单特征&lt;br&gt;画像特征&lt;br&gt;交叉特征" style="rounded=0;whiteSpace=wrap;html=1;" vertex="1" parent="1">
          <mxGeometry x="230" y="400" width="50" height="120" as="geometry" />
        </mxCell>
        <mxCell id="85ab-mjDChyX_CGXG3ws-22" value="实时&lt;br&gt;离线&lt;br&gt;特征" style="rounded=0;whiteSpace=wrap;html=1;fillColor=#fff2cc;strokeColor=#d6b656;" vertex="1" parent="1">
          <mxGeometry x="280" y="280" width="30" height="240" as="geometry" />
        </mxCell>
        <mxCell id="85ab-mjDChyX_CGXG3ws-23" value="" style="shape=flexArrow;endArrow=classic;html=1;rounded=0;width=10;endSize=5.33;startArrow=none;" edge="1" parent="1">
          <mxGeometry width="50" height="50" relative="1" as="geometry">
            <mxPoint x="310" y="400" as="sourcePoint" />
            <mxPoint x="380" y="400" as="targetPoint" />
          </mxGeometry>
        </mxCell>
        <mxCell id="85ab-mjDChyX_CGXG3ws-27" value="评价" style="rounded=0;whiteSpace=wrap;html=1;" vertex="1" parent="1">
          <mxGeometry x="920" y="280" width="120" height="60" as="geometry" />
        </mxCell>
        <mxCell id="85ab-mjDChyX_CGXG3ws-33" value="策略" style="rounded=0;whiteSpace=wrap;html=1;" vertex="1" parent="1">
          <mxGeometry x="670" y="280" width="150" height="60" as="geometry" />
        </mxCell>
        <mxCell id="85ab-mjDChyX_CGXG3ws-39" value="" style="group" vertex="1" connectable="0" parent="1">
          <mxGeometry x="760" y="380" width="60" height="140" as="geometry" />
        </mxCell>
        <mxCell id="85ab-mjDChyX_CGXG3ws-34" value="1免密" style="rounded=0;whiteSpace=wrap;html=1;" vertex="1" parent="85ab-mjDChyX_CGXG3ws-39">
          <mxGeometry width="60" height="35" as="geometry" />
        </mxCell>
        <mxCell id="85ab-mjDChyX_CGXG3ws-35" value="4双选(1,2)" style="rounded=0;whiteSpace=wrap;html=1;" vertex="1" parent="85ab-mjDChyX_CGXG3ws-39">
          <mxGeometry y="105" width="60" height="35" as="geometry" />
        </mxCell>
        <mxCell id="85ab-mjDChyX_CGXG3ws-36" value="3先用后付" style="rounded=0;whiteSpace=wrap;html=1;" vertex="1" parent="85ab-mjDChyX_CGXG3ws-39">
          <mxGeometry y="70" width="60" height="35" as="geometry" />
        </mxCell>
        <mxCell id="85ab-mjDChyX_CGXG3ws-37" value="2预付" style="rounded=0;whiteSpace=wrap;html=1;" vertex="1" parent="85ab-mjDChyX_CGXG3ws-39">
          <mxGeometry y="35" width="60" height="35" as="geometry" />
        </mxCell>
        <mxCell id="85ab-mjDChyX_CGXG3ws-41" value="坏账期望" style="rounded=0;whiteSpace=wrap;html=1;fillColor=#fff2cc;strokeColor=#d6b656;" vertex="1" parent="1">
          <mxGeometry x="570" y="280" width="30" height="240" as="geometry" />
        </mxCell>
        <mxCell id="85ab-mjDChyX_CGXG3ws-42" value="" style="group" vertex="1" connectable="0" parent="1">
          <mxGeometry x="510" y="340" width="60" height="180" as="geometry" />
        </mxCell>
        <mxCell id="85ab-mjDChyX_CGXG3ws-32" value="用户未支付概率" style="rounded=0;whiteSpace=wrap;html=1;" vertex="1" parent="85ab-mjDChyX_CGXG3ws-42">
          <mxGeometry width="60" height="150" as="geometry" />
        </mxCell>
        <mxCell id="85ab-mjDChyX_CGXG3ws-40" value="订单预估价格" style="rounded=0;whiteSpace=wrap;html=1;" vertex="1" parent="85ab-mjDChyX_CGXG3ws-42">
          <mxGeometry y="150" width="60" height="30" as="geometry" />
        </mxCell>
        <mxCell id="85ab-mjDChyX_CGXG3ws-43" value="" style="group" vertex="1" connectable="0" parent="1">
          <mxGeometry x="430" y="340" width="80" height="180" as="geometry" />
        </mxCell>
        <mxCell id="85ab-mjDChyX_CGXG3ws-30" value="机器学习模型" style="rounded=0;whiteSpace=wrap;html=1;" vertex="1" parent="85ab-mjDChyX_CGXG3ws-43">
          <mxGeometry width="80" height="90" as="geometry" />
        </mxCell>
        <mxCell id="85ab-mjDChyX_CGXG3ws-31" value="深度学习模型" style="rounded=0;whiteSpace=wrap;html=1;" vertex="1" parent="85ab-mjDChyX_CGXG3ws-43">
          <mxGeometry y="90" width="80" height="90" as="geometry" />
        </mxCell>
        <mxCell id="85ab-mjDChyX_CGXG3ws-44" value="拦截方式" style="rounded=0;whiteSpace=wrap;html=1;" vertex="1" parent="1">
          <mxGeometry x="760" y="340" width="60" height="40" as="geometry" />
        </mxCell>
        <mxCell id="85ab-mjDChyX_CGXG3ws-47" value="" style="group" vertex="1" connectable="0" parent="1">
          <mxGeometry x="670" y="380" width="60" height="140" as="geometry" />
        </mxCell>
        <mxCell id="85ab-mjDChyX_CGXG3ws-26" value="城市纬度" style="rounded=0;whiteSpace=wrap;html=1;" vertex="1" parent="85ab-mjDChyX_CGXG3ws-47">
          <mxGeometry width="60" height="70" as="geometry" />
        </mxCell>
        <mxCell id="85ab-mjDChyX_CGXG3ws-46" value="平台纬度" style="rounded=0;whiteSpace=wrap;html=1;" vertex="1" parent="85ab-mjDChyX_CGXG3ws-47">
          <mxGeometry y="70" width="60" height="70" as="geometry" />
        </mxCell>
        <mxCell id="85ab-mjDChyX_CGXG3ws-49" value="" style="group" vertex="1" connectable="0" parent="1">
          <mxGeometry x="730" y="380" width="30" height="70" as="geometry" />
        </mxCell>
        <mxCell id="85ab-mjDChyX_CGXG3ws-24" value="新城" style="rounded=0;whiteSpace=wrap;html=1;" vertex="1" parent="85ab-mjDChyX_CGXG3ws-49">
          <mxGeometry width="30" height="35" as="geometry" />
        </mxCell>
        <mxCell id="85ab-mjDChyX_CGXG3ws-25" value="老城" style="rounded=0;whiteSpace=wrap;html=1;" vertex="1" parent="85ab-mjDChyX_CGXG3ws-49">
          <mxGeometry y="35" width="30" height="35" as="geometry" />
        </mxCell>
        <mxCell id="85ab-mjDChyX_CGXG3ws-50" value="" style="group" vertex="1" connectable="0" parent="1">
          <mxGeometry x="730" y="450" width="30" height="70" as="geometry" />
        </mxCell>
        <mxCell id="85ab-mjDChyX_CGXG3ws-51" value="小程序" style="rounded=0;whiteSpace=wrap;html=1;" vertex="1" parent="85ab-mjDChyX_CGXG3ws-50">
          <mxGeometry width="30" height="35" as="geometry" />
        </mxCell>
        <mxCell id="85ab-mjDChyX_CGXG3ws-52" value="非小程序" style="rounded=0;whiteSpace=wrap;html=1;" vertex="1" parent="85ab-mjDChyX_CGXG3ws-50">
          <mxGeometry y="35" width="30" height="35" as="geometry" />
        </mxCell>
        <mxCell id="85ab-mjDChyX_CGXG3ws-53" value="订单是否成功" style="rounded=0;whiteSpace=wrap;html=1;fillColor=#fff2cc;strokeColor=#d6b656;" vertex="1" parent="1">
          <mxGeometry x="820" y="280" width="30" height="240" as="geometry" />
        </mxCell>
        <mxCell id="85ab-mjDChyX_CGXG3ws-58" value="工具平台" style="rounded=0;whiteSpace=wrap;html=1;" vertex="1" parent="1">
          <mxGeometry x="380" y="340" width="50" height="60" as="geometry" />
        </mxCell>
        <mxCell id="85ab-mjDChyX_CGXG3ws-59" value="万象&lt;br&gt;机器学习" style="rounded=0;whiteSpace=wrap;html=1;" vertex="1" parent="1">
          <mxGeometry x="380" y="390" width="50" height="130" as="geometry" />
        </mxCell>
        <mxCell id="85ab-mjDChyX_CGXG3ws-60" value="" style="group;" vertex="1" connectable="0" parent="1">
          <mxGeometry x="920" y="340" width="120" height="180" as="geometry" />
        </mxCell>
        <mxCell id="85ab-mjDChyX_CGXG3ws-28" value="提单成功率" style="rounded=0;whiteSpace=wrap;html=1;" vertex="1" parent="85ab-mjDChyX_CGXG3ws-60">
          <mxGeometry width="120" height="90" as="geometry" />
        </mxCell>
        <mxCell id="85ab-mjDChyX_CGXG3ws-29" value="30天未支付金额率" style="rounded=0;whiteSpace=wrap;html=1;" vertex="1" parent="85ab-mjDChyX_CGXG3ws-60">
          <mxGeometry y="90" width="120" height="90" as="geometry" />
        </mxCell>
        <mxCell id="85ab-mjDChyX_CGXG3ws-66" value="锁款业务" style="rounded=0;whiteSpace=wrap;html=1;" vertex="1" parent="1">
          <mxGeometry x="30" y="520" width="1040" height="60" as="geometry" />
        </mxCell>
        <mxCell id="85ab-mjDChyX_CGXG3ws-67" value="" style="shape=flexArrow;endArrow=classic;html=1;rounded=0;width=10;endSize=5.33;startArrow=none;" edge="1" parent="1">
          <mxGeometry width="50" height="50" relative="1" as="geometry">
            <mxPoint x="600" y="400" as="sourcePoint" />
            <mxPoint x="670" y="400" as="targetPoint" />
          </mxGeometry>
        </mxCell>
        <mxCell id="85ab-mjDChyX_CGXG3ws-68" value="" style="shape=flexArrow;endArrow=classic;html=1;rounded=0;width=10;endSize=5.33;startArrow=none;" edge="1" parent="1">
          <mxGeometry width="50" height="50" relative="1" as="geometry">
            <mxPoint x="850" y="400" as="sourcePoint" />
            <mxPoint x="920" y="400" as="targetPoint" />
          </mxGeometry>
        </mxCell>
        <mxCell id="85ab-mjDChyX_CGXG3ws-70" value="team&lt;br&gt;goal" style="rounded=0;whiteSpace=wrap;html=1;fillColor=#fff2cc;strokeColor=#d6b656;" vertex="1" parent="1">
          <mxGeometry x="1040" y="280" width="30" height="240" as="geometry" />
        </mxCell>
      </root>
    </mxGraphModel>
  </diagram>
</mxfile>
